<mxfile host="Electron" modified="2023-06-01T13:41:14.361Z" agent="Mozilla/5.0 (Windows NT 10.0; Win64; x64) AppleWebKit/537.36 (KHTML, like Gecko) draw.io/21.2.8 Chrome/112.0.5615.165 Electron/24.2.0 Safari/537.36" etag="_iUP22mUgLufeRc2z7i3" version="21.2.8" type="device" pages="3">
  <diagram name="CCC" id="Bh_aaSimKVe7UjL6vj0u">
    <mxGraphModel dx="2096" dy="604" grid="1" gridSize="10" guides="1" tooltips="1" connect="1" arrows="1" fold="1" page="1" pageScale="1" pageWidth="850" pageHeight="1100" background="none" math="0" shadow="0">
      <root>
        <mxCell id="0" />
        <mxCell id="1" parent="0" />
        <mxCell id="I48bW1KA2m8TP4DatBtY-1" value="Student" style="swimlane;fontStyle=1;align=center;verticalAlign=top;childLayout=stackLayout;horizontal=1;startSize=26;horizontalStack=0;resizeParent=1;resizeParentMax=0;resizeLast=0;collapsible=1;marginBottom=0;whiteSpace=wrap;html=1;" parent="1" vertex="1">
          <mxGeometry width="160" height="160" as="geometry" />
        </mxCell>
        <mxCell id="I48bW1KA2m8TP4DatBtY-2" value="id : CID&lt;br&gt;schedule : Course[ ]&lt;br&gt;gpa : Number" style="text;strokeColor=none;fillColor=none;align=left;verticalAlign=top;spacingLeft=4;spacingRight=4;overflow=hidden;rotatable=0;points=[[0,0.5],[1,0.5]];portConstraint=eastwest;whiteSpace=wrap;html=1;" parent="I48bW1KA2m8TP4DatBtY-1" vertex="1">
          <mxGeometry y="26" width="160" height="54" as="geometry" />
        </mxCell>
        <mxCell id="I48bW1KA2m8TP4DatBtY-3" value="" style="line;strokeWidth=1;fillColor=none;align=left;verticalAlign=middle;spacingTop=-1;spacingLeft=3;spacingRight=3;rotatable=0;labelPosition=right;points=[];portConstraint=eastwest;strokeColor=inherit;" parent="I48bW1KA2m8TP4DatBtY-1" vertex="1">
          <mxGeometry y="80" width="160" height="8" as="geometry" />
        </mxCell>
        <mxCell id="I48bW1KA2m8TP4DatBtY-4" value="register()&lt;br&gt;register( Advisor )&lt;br&gt;drop ( Course )&lt;br&gt;calcGPA( Course )" style="text;strokeColor=none;fillColor=none;align=left;verticalAlign=top;spacingLeft=4;spacingRight=4;overflow=hidden;rotatable=0;points=[[0,0.5],[1,0.5]];portConstraint=eastwest;whiteSpace=wrap;html=1;" parent="I48bW1KA2m8TP4DatBtY-1" vertex="1">
          <mxGeometry y="88" width="160" height="72" as="geometry" />
        </mxCell>
        <mxCell id="I48bW1KA2m8TP4DatBtY-5" value="Course" style="swimlane;fontStyle=1;align=center;verticalAlign=top;childLayout=stackLayout;horizontal=1;startSize=26;horizontalStack=0;resizeParent=1;resizeParentMax=0;resizeLast=0;collapsible=1;marginBottom=0;whiteSpace=wrap;html=1;" parent="1" vertex="1">
          <mxGeometry y="170" width="160" height="188" as="geometry" />
        </mxCell>
        <mxCell id="I48bW1KA2m8TP4DatBtY-6" value="instruct : Teacher&lt;br&gt;desig : String&lt;br&gt;cred : Credit&lt;br&gt;capacity : Number&lt;br&gt;grade : Number" style="text;strokeColor=none;fillColor=none;align=left;verticalAlign=top;spacingLeft=4;spacingRight=4;overflow=hidden;rotatable=0;points=[[0,0.5],[1,0.5]];portConstraint=eastwest;whiteSpace=wrap;html=1;" parent="I48bW1KA2m8TP4DatBtY-5" vertex="1">
          <mxGeometry y="26" width="160" height="84" as="geometry" />
        </mxCell>
        <mxCell id="I48bW1KA2m8TP4DatBtY-7" value="" style="line;strokeWidth=1;fillColor=none;align=left;verticalAlign=middle;spacingTop=-1;spacingLeft=3;spacingRight=3;rotatable=0;labelPosition=right;points=[];portConstraint=eastwest;strokeColor=inherit;" parent="I48bW1KA2m8TP4DatBtY-5" vertex="1">
          <mxGeometry y="110" width="160" height="8" as="geometry" />
        </mxCell>
        <mxCell id="I48bW1KA2m8TP4DatBtY-8" value="register()&lt;br&gt;register( Advisor )&lt;br&gt;drop ( Course )" style="text;strokeColor=none;fillColor=none;align=left;verticalAlign=top;spacingLeft=4;spacingRight=4;overflow=hidden;rotatable=0;points=[[0,0.5],[1,0.5]];portConstraint=eastwest;whiteSpace=wrap;html=1;" parent="I48bW1KA2m8TP4DatBtY-5" vertex="1">
          <mxGeometry y="118" width="160" height="70" as="geometry" />
        </mxCell>
        <mxCell id="I48bW1KA2m8TP4DatBtY-9" value="CID" style="swimlane;fontStyle=1;align=center;verticalAlign=top;childLayout=stackLayout;horizontal=1;startSize=26;horizontalStack=0;resizeParent=1;resizeParentMax=0;resizeLast=0;collapsible=1;marginBottom=0;whiteSpace=wrap;html=1;" parent="1" vertex="1">
          <mxGeometry x="200" y="160" width="160" height="100" as="geometry" />
        </mxCell>
        <mxCell id="I48bW1KA2m8TP4DatBtY-10" value="value : String" style="text;strokeColor=none;fillColor=none;align=left;verticalAlign=top;spacingLeft=4;spacingRight=4;overflow=hidden;rotatable=0;points=[[0,0.5],[1,0.5]];portConstraint=eastwest;whiteSpace=wrap;html=1;" parent="I48bW1KA2m8TP4DatBtY-9" vertex="1">
          <mxGeometry y="26" width="160" height="34" as="geometry" />
        </mxCell>
        <mxCell id="I48bW1KA2m8TP4DatBtY-11" value="" style="line;strokeWidth=1;fillColor=none;align=left;verticalAlign=middle;spacingTop=-1;spacingLeft=3;spacingRight=3;rotatable=0;labelPosition=right;points=[];portConstraint=eastwest;strokeColor=inherit;" parent="I48bW1KA2m8TP4DatBtY-9" vertex="1">
          <mxGeometry y="60" width="160" height="8" as="geometry" />
        </mxCell>
        <mxCell id="I48bW1KA2m8TP4DatBtY-12" value="balance ( Student )" style="text;strokeColor=none;fillColor=none;align=left;verticalAlign=top;spacingLeft=4;spacingRight=4;overflow=hidden;rotatable=0;points=[[0,0.5],[1,0.5]];portConstraint=eastwest;whiteSpace=wrap;html=1;" parent="I48bW1KA2m8TP4DatBtY-9" vertex="1">
          <mxGeometry y="68" width="160" height="32" as="geometry" />
        </mxCell>
        <mxCell id="I48bW1KA2m8TP4DatBtY-13" value="Teacher" style="swimlane;fontStyle=1;align=center;verticalAlign=top;childLayout=stackLayout;horizontal=1;startSize=26;horizontalStack=0;resizeParent=1;resizeParentMax=0;resizeLast=0;collapsible=1;marginBottom=0;whiteSpace=wrap;html=1;" parent="1" vertex="1">
          <mxGeometry x="200" width="160" height="100" as="geometry" />
        </mxCell>
        <mxCell id="I48bW1KA2m8TP4DatBtY-14" value="id : CID" style="text;strokeColor=none;fillColor=none;align=left;verticalAlign=top;spacingLeft=4;spacingRight=4;overflow=hidden;rotatable=0;points=[[0,0.5],[1,0.5]];portConstraint=eastwest;whiteSpace=wrap;html=1;" parent="I48bW1KA2m8TP4DatBtY-13" vertex="1">
          <mxGeometry y="26" width="160" height="34" as="geometry" />
        </mxCell>
        <mxCell id="I48bW1KA2m8TP4DatBtY-15" value="" style="line;strokeWidth=1;fillColor=none;align=left;verticalAlign=middle;spacingTop=-1;spacingLeft=3;spacingRight=3;rotatable=0;labelPosition=right;points=[];portConstraint=eastwest;strokeColor=inherit;" parent="I48bW1KA2m8TP4DatBtY-13" vertex="1">
          <mxGeometry y="60" width="160" height="8" as="geometry" />
        </mxCell>
        <mxCell id="I48bW1KA2m8TP4DatBtY-16" value="&amp;nbsp;" style="text;strokeColor=none;fillColor=none;align=left;verticalAlign=top;spacingLeft=4;spacingRight=4;overflow=hidden;rotatable=0;points=[[0,0.5],[1,0.5]];portConstraint=eastwest;whiteSpace=wrap;html=1;" parent="I48bW1KA2m8TP4DatBtY-13" vertex="1">
          <mxGeometry y="68" width="160" height="32" as="geometry" />
        </mxCell>
        <mxCell id="I48bW1KA2m8TP4DatBtY-17" value="Student.calcGPA" style="shape=umlFrame;whiteSpace=wrap;html=1;pointerEvents=0;recursiveResize=0;container=1;collapsible=0;width=160;" parent="1" vertex="1">
          <mxGeometry x="30" y="400" width="340" height="50" as="geometry" />
        </mxCell>
        <mxCell id="I48bW1KA2m8TP4DatBtY-18" value="" style="ellipse;fillColor=strokeColor;html=1;" parent="1" vertex="1">
          <mxGeometry x="185" y="470" width="30" height="30" as="geometry" />
        </mxCell>
        <mxCell id="I48bW1KA2m8TP4DatBtY-19" value="qpoints[0] = Course[0].grade&amp;nbsp;• Course[0].cred&lt;br&gt;&amp;nbsp;" style="html=1;align=center;verticalAlign=top;rounded=1;absoluteArcSize=1;arcSize=10;dashed=0;whiteSpace=wrap;" parent="1" vertex="1">
          <mxGeometry x="75" y="513" width="250" height="30" as="geometry" />
        </mxCell>
        <mxCell id="I48bW1KA2m8TP4DatBtY-22" value="Calculating gpa&lt;br&gt;multiply class credit and letter grade&lt;br&gt;add up all sums&lt;br&gt;divide by sum of credits" style="text;html=1;align=center;verticalAlign=middle;resizable=0;points=[];autosize=1;strokeColor=none;fillColor=none;" parent="1" vertex="1">
          <mxGeometry x="385" y="408" width="210" height="70" as="geometry" />
        </mxCell>
        <mxCell id="I48bW1KA2m8TP4DatBtY-23" value="A = 4.0&lt;br&gt;A- = 3.7&lt;br&gt;B+ = 3.3&lt;br&gt;B = 3.0&lt;br&gt;B_ = 2.7&lt;br&gt;C+ = 2.3&lt;br&gt;C = 2.0&lt;br&gt;D = 1.0&lt;br&gt;F= 0.0" style="text;html=1;align=center;verticalAlign=middle;resizable=0;points=[];autosize=1;strokeColor=none;fillColor=none;" parent="1" vertex="1">
          <mxGeometry x="455" y="590" width="70" height="140" as="geometry" />
        </mxCell>
        <mxCell id="I48bW1KA2m8TP4DatBtY-24" value="&lt;font style=&quot;font-size: 12px;&quot;&gt;ENGL 1020&lt;span style=&quot;color: rgb(33, 37, 41); font-family: &amp;quot;Maven Pro&amp;quot;, sans-serif; text-align: start; background-color: rgb(255, 255, 255);&quot;&gt;&amp;nbsp;• 3 cr. hr. • B = 9.0&lt;/span&gt;&lt;br style=&quot;box-sizing: border-box; color: rgb(33, 37, 41); font-family: &amp;quot;Maven Pro&amp;quot;, sans-serif; text-align: start; background-color: rgb(255, 255, 255);&quot;&gt;&lt;span style=&quot;box-sizing: border-box; color: rgb(33, 37, 41); font-family: &amp;quot;Maven Pro&amp;quot;, sans-serif; text-align: start; background-color: rgb(255, 255, 255);&quot;&gt;HIST 1110&lt;/span&gt;&lt;span style=&quot;color: rgb(33, 37, 41); font-family: &amp;quot;Maven Pro&amp;quot;, sans-serif; text-align: start; background-color: rgb(255, 255, 255);&quot;&gt;&amp;nbsp;• 3 cr. hr. • C+ = 6.9&lt;/span&gt;&lt;br style=&quot;box-sizing: border-box; color: rgb(33, 37, 41); font-family: &amp;quot;Maven Pro&amp;quot;, sans-serif; text-align: start; background-color: rgb(255, 255, 255);&quot;&gt;&lt;span style=&quot;box-sizing: border-box; color: rgb(33, 37, 41); font-family: &amp;quot;Maven Pro&amp;quot;, sans-serif; text-align: start; background-color: rgb(255, 255, 255);&quot;&gt;MATH 1310&lt;/span&gt;&lt;span style=&quot;color: rgb(33, 37, 41); font-family: &amp;quot;Maven Pro&amp;quot;, sans-serif; text-align: start; background-color: rgb(255, 255, 255);&quot;&gt;&amp;nbsp;• 4 cr. hr. • A =16.0&lt;/span&gt;&lt;br style=&quot;box-sizing: border-box; color: rgb(33, 37, 41); font-family: &amp;quot;Maven Pro&amp;quot;, sans-serif; text-align: start; background-color: rgb(255, 255, 255);&quot;&gt;&lt;span style=&quot;box-sizing: border-box; color: rgb(33, 37, 41); font-family: &amp;quot;Maven Pro&amp;quot;, sans-serif; text-align: start; background-color: rgb(255, 255, 255);&quot;&gt;BIOL 1020&lt;/span&gt;&lt;span style=&quot;color: rgb(33, 37, 41); font-family: &amp;quot;Maven Pro&amp;quot;, sans-serif; text-align: start; background-color: rgb(255, 255, 255);&quot;&gt;&amp;nbsp;• 3 cr. hr. • A- =11.1&lt;/span&gt;&lt;br style=&quot;box-sizing: border-box; color: rgb(33, 37, 41); font-family: &amp;quot;Maven Pro&amp;quot;, sans-serif; text-align: start; background-color: rgb(255, 255, 255);&quot;&gt;&lt;span style=&quot;box-sizing: border-box; color: rgb(33, 37, 41); font-family: &amp;quot;Maven Pro&amp;quot;, sans-serif; text-align: start; background-color: rgb(255, 255, 255);&quot;&gt;WELL 1001&lt;/span&gt;&lt;span style=&quot;color: rgb(33, 37, 41); font-family: &amp;quot;Maven Pro&amp;quot;, sans-serif; text-align: start; background-color: rgb(255, 255, 255);&quot;&gt;&amp;nbsp;• 1 cr. hr. • B+ =3.3&lt;/span&gt;&lt;br style=&quot;box-sizing: border-box; color: rgb(33, 37, 41); font-family: &amp;quot;Maven Pro&amp;quot;, sans-serif; text-align: start; background-color: rgb(255, 255, 255);&quot;&gt;&lt;span style=&quot;color: rgb(33, 37, 41); font-family: &amp;quot;Maven Pro&amp;quot;, sans-serif; text-align: start; background-color: rgb(255, 255, 255);&quot;&gt;14 cr. hr. total=46.3 total pts.&lt;br&gt;gpa = 3.31&lt;br&gt;&lt;/span&gt;&lt;/font&gt;" style="text;html=1;align=center;verticalAlign=middle;resizable=0;points=[];autosize=1;strokeColor=none;fillColor=none;" parent="1" vertex="1">
          <mxGeometry x="405" y="473" width="190" height="110" as="geometry" />
        </mxCell>
        <mxCell id="I48bW1KA2m8TP4DatBtY-25" value="Course" style="html=1;align=center;verticalAlign=middle;rounded=0;absoluteArcSize=1;arcSize=10;dashed=0;whiteSpace=wrap;" parent="1" vertex="1">
          <mxGeometry y="443" width="60" height="27" as="geometry" />
        </mxCell>
        <mxCell id="whFU2kCu_9axx9TU3cCL-2" value="CCC" style="shape=umlFrame;whiteSpace=wrap;html=1;pointerEvents=0;recursiveResize=0;container=1;collapsible=0;width=160;" parent="1" vertex="1">
          <mxGeometry x="-840" y="40" width="340" height="50" as="geometry" />
        </mxCell>
        <mxCell id="whFU2kCu_9axx9TU3cCL-3" value="" style="ellipse;fillColor=strokeColor;html=1;" parent="1" vertex="1">
          <mxGeometry x="-685" y="100" width="30" height="30" as="geometry" />
        </mxCell>
        <mxCell id="whFU2kCu_9axx9TU3cCL-4" value="John = new Student" style="html=1;align=center;verticalAlign=top;rounded=1;absoluteArcSize=1;arcSize=10;dashed=0;whiteSpace=wrap;" parent="1" vertex="1">
          <mxGeometry x="-740" y="146" width="140" height="34" as="geometry" />
        </mxCell>
        <mxCell id="k4bTbu49vwtvxRk3fbyf-1" value="credSum = Course[0].cred + ... + Course[4].cred" style="html=1;align=center;verticalAlign=top;rounded=1;absoluteArcSize=1;arcSize=10;dashed=0;whiteSpace=wrap;" parent="1" vertex="1">
          <mxGeometry x="55" y="590" width="290" height="30" as="geometry" />
        </mxCell>
        <mxCell id="k4bTbu49vwtvxRk3fbyf-2" value="pointsSum = qpoints[0] + ... + qpoints[4]" style="html=1;align=center;verticalAlign=top;rounded=1;absoluteArcSize=1;arcSize=10;dashed=0;whiteSpace=wrap;" parent="1" vertex="1">
          <mxGeometry x="75" y="640" width="250" height="30" as="geometry" />
        </mxCell>
        <mxCell id="k4bTbu49vwtvxRk3fbyf-3" value="gpa = pointsSum / credSum" style="html=1;align=center;verticalAlign=top;rounded=1;absoluteArcSize=1;arcSize=10;dashed=0;whiteSpace=wrap;" parent="1" vertex="1">
          <mxGeometry x="75" y="690" width="250" height="30" as="geometry" />
        </mxCell>
        <mxCell id="W-SF6n1-f91DaoHZwRnp-1" value="CSCS" style="swimlane;fontStyle=1;align=center;verticalAlign=top;childLayout=stackLayout;horizontal=1;startSize=26;horizontalStack=0;resizeParent=1;resizeParentMax=0;resizeLast=0;collapsible=1;marginBottom=0;whiteSpace=wrap;html=1;" parent="1" vertex="1">
          <mxGeometry x="880" width="160" height="100" as="geometry" />
        </mxCell>
        <mxCell id="W-SF6n1-f91DaoHZwRnp-2" value="study : String" style="text;strokeColor=none;fillColor=none;align=left;verticalAlign=top;spacingLeft=4;spacingRight=4;overflow=hidden;rotatable=0;points=[[0,0.5],[1,0.5]];portConstraint=eastwest;whiteSpace=wrap;html=1;" parent="W-SF6n1-f91DaoHZwRnp-1" vertex="1">
          <mxGeometry y="26" width="160" height="34" as="geometry" />
        </mxCell>
        <mxCell id="W-SF6n1-f91DaoHZwRnp-3" value="" style="line;strokeWidth=1;fillColor=none;align=left;verticalAlign=middle;spacingTop=-1;spacingLeft=3;spacingRight=3;rotatable=0;labelPosition=right;points=[];portConstraint=eastwest;strokeColor=inherit;" parent="W-SF6n1-f91DaoHZwRnp-1" vertex="1">
          <mxGeometry y="60" width="160" height="8" as="geometry" />
        </mxCell>
        <mxCell id="W-SF6n1-f91DaoHZwRnp-4" value="grade ( study )" style="text;strokeColor=none;fillColor=none;align=left;verticalAlign=top;spacingLeft=4;spacingRight=4;overflow=hidden;rotatable=0;points=[[0,0.5],[1,0.5]];portConstraint=eastwest;whiteSpace=wrap;html=1;" parent="W-SF6n1-f91DaoHZwRnp-1" vertex="1">
          <mxGeometry y="68" width="160" height="32" as="geometry" />
        </mxCell>
        <mxCell id="W-SF6n1-f91DaoHZwRnp-5" value="Student.calcGPA" style="shape=umlFrame;whiteSpace=wrap;html=1;pointerEvents=0;recursiveResize=0;container=1;collapsible=0;width=160;" parent="1" vertex="1">
          <mxGeometry x="800" y="130" width="290" height="50" as="geometry" />
        </mxCell>
        <mxCell id="W-SF6n1-f91DaoHZwRnp-6" value="study" style="html=1;align=center;verticalAlign=middle;rounded=0;absoluteArcSize=1;arcSize=10;dashed=0;whiteSpace=wrap;" parent="1" vertex="1">
          <mxGeometry x="760" y="170" width="60" height="27" as="geometry" />
        </mxCell>
        <mxCell id="W-SF6n1-f91DaoHZwRnp-7" value="" style="ellipse;fillColor=strokeColor;html=1;" parent="1" vertex="1">
          <mxGeometry x="945" y="197" width="30" height="30" as="geometry" />
        </mxCell>
        <mxCell id="W-SF6n1-f91DaoHZwRnp-8" value="grade = ( sum of all tasks ) / 4" style="html=1;align=center;verticalAlign=top;rounded=1;absoluteArcSize=1;arcSize=10;dashed=0;whiteSpace=wrap;" parent="1" vertex="1">
          <mxGeometry x="835" y="248" width="250" height="30" as="geometry" />
        </mxCell>
        <mxCell id="W-SF6n1-f91DaoHZwRnp-10" value="Depending on the grade value an&lt;br&gt;appropriateletter grade is assigned" style="text;html=1;align=center;verticalAlign=middle;resizable=0;points=[];autosize=1;strokeColor=none;fillColor=none;" parent="1" vertex="1">
          <mxGeometry x="855" y="293" width="210" height="40" as="geometry" />
        </mxCell>
        <mxCell id="W-SF6n1-f91DaoHZwRnp-11" value="return grade" style="text;html=1;align=center;verticalAlign=middle;resizable=0;points=[];autosize=1;strokeColor=none;fillColor=none;" parent="1" vertex="1">
          <mxGeometry x="915" y="390" width="90" height="30" as="geometry" />
        </mxCell>
      </root>
    </mxGraphModel>
  </diagram>
  <diagram id="yT1HxiPsiRFMdC58yNsr" name="Item">
    <mxGraphModel dx="1246" dy="604" grid="1" gridSize="10" guides="1" tooltips="1" connect="1" arrows="1" fold="1" page="1" pageScale="1" pageWidth="850" pageHeight="1100" math="0" shadow="0">
      <root>
        <mxCell id="0" />
        <mxCell id="1" parent="0" />
        <mxCell id="Rofi-ecD6lDw7zpWpLXX-1" value="&lt;p style=&quot;margin:0px;margin-top:4px;text-align:center;&quot;&gt;&lt;b&gt;Item&lt;/b&gt;&lt;/p&gt;&lt;hr size=&quot;1&quot;&gt;&lt;p style=&quot;margin:0px;margin-left:4px;&quot;&gt;value : object&lt;/p&gt;&lt;p style=&quot;margin:0px;margin-left:4px;&quot;&gt;below : Item&lt;/p&gt;&lt;p style=&quot;margin:0px;margin-left:4px;&quot;&gt;above : Item&lt;/p&gt;&lt;hr size=&quot;1&quot;&gt;&lt;p style=&quot;margin:0px;margin-left:4px;&quot;&gt;Item( thing : object )&lt;/p&gt;&lt;p style=&quot;margin:0px;margin-left:4px;&quot;&gt;insertBelow( thing : object )&lt;/p&gt;&lt;p style=&quot;margin:0px;margin-left:4px;&quot;&gt;insertAbove( thing : object )&lt;/p&gt;" style="verticalAlign=top;align=left;overflow=fill;fontSize=12;fontFamily=Helvetica;html=1;" parent="1" vertex="1">
          <mxGeometry width="160" height="140" as="geometry" />
        </mxCell>
        <mxCell id="Rofi-ecD6lDw7zpWpLXX-2" value="Item.Item" style="shape=umlFrame;whiteSpace=wrap;html=1;width=120;height=20;boundedLbl=1;verticalAlign=middle;align=left;spacingLeft=5;" parent="1" vertex="1">
          <mxGeometry x="43.75" y="186.89" width="210" height="280" as="geometry" />
        </mxCell>
        <mxCell id="Rofi-ecD6lDw7zpWpLXX-3" style="edgeStyle=orthogonalEdgeStyle;rounded=0;orthogonalLoop=1;jettySize=auto;html=1;entryX=0.5;entryY=0;entryDx=0;entryDy=0;endArrow=classic;endFill=1;" parent="1" source="Rofi-ecD6lDw7zpWpLXX-4" target="Rofi-ecD6lDw7zpWpLXX-6" edge="1">
          <mxGeometry relative="1" as="geometry" />
        </mxCell>
        <mxCell id="Rofi-ecD6lDw7zpWpLXX-4" value="" style="ellipse;fillColor=strokeColor;html=1;" parent="1" vertex="1">
          <mxGeometry x="126.25" y="212.18999999999994" width="30" height="30" as="geometry" />
        </mxCell>
        <mxCell id="Rofi-ecD6lDw7zpWpLXX-5" style="edgeStyle=orthogonalEdgeStyle;rounded=0;orthogonalLoop=1;jettySize=auto;html=1;entryX=0.5;entryY=0;entryDx=0;entryDy=0;" parent="1" source="Rofi-ecD6lDw7zpWpLXX-6" edge="1">
          <mxGeometry relative="1" as="geometry">
            <mxPoint x="141.25" y="337.83000000000027" as="targetPoint" />
          </mxGeometry>
        </mxCell>
        <mxCell id="Rofi-ecD6lDw7zpWpLXX-6" value="this.value = thing" style="html=1;align=center;verticalAlign=top;rounded=1;absoluteArcSize=1;arcSize=10;dashed=0;whiteSpace=wrap;" parent="1" vertex="1">
          <mxGeometry x="75" y="281.59000000000003" width="132.5" height="33.76" as="geometry" />
        </mxCell>
        <mxCell id="Rofi-ecD6lDw7zpWpLXX-7" style="edgeStyle=orthogonalEdgeStyle;rounded=0;orthogonalLoop=1;jettySize=auto;html=1;entryX=0.5;entryY=0;entryDx=0;entryDy=0;endArrow=classic;endFill=1;" parent="1" source="Rofi-ecD6lDw7zpWpLXX-8" target="Rofi-ecD6lDw7zpWpLXX-9" edge="1">
          <mxGeometry relative="1" as="geometry" />
        </mxCell>
        <mxCell id="Rofi-ecD6lDw7zpWpLXX-8" value="this.below = null&lt;br&gt;this.above = null" style="html=1;align=center;verticalAlign=top;rounded=1;absoluteArcSize=1;arcSize=10;dashed=0;whiteSpace=wrap;" parent="1" vertex="1">
          <mxGeometry x="70" y="340" width="142.5" height="41.59" as="geometry" />
        </mxCell>
        <mxCell id="Rofi-ecD6lDw7zpWpLXX-9" value="" style="ellipse;html=1;shape=endState;fillColor=strokeColor;" parent="1" vertex="1">
          <mxGeometry x="126.25" y="411.59000000000003" width="30" height="30" as="geometry" />
        </mxCell>
        <mxCell id="Rofi-ecD6lDw7zpWpLXX-10" value="thing" style="rounded=0;whiteSpace=wrap;html=1;" parent="1" vertex="1">
          <mxGeometry y="217.49" width="70" height="24.7" as="geometry" />
        </mxCell>
        <mxCell id="Rofi-ecD6lDw7zpWpLXX-11" value="Item.insertBelow" style="shape=umlFrame;whiteSpace=wrap;html=1;width=120;height=20;boundedLbl=1;verticalAlign=middle;align=left;spacingLeft=5;" parent="1" vertex="1">
          <mxGeometry x="280" y="480" width="400" height="466.89" as="geometry" />
        </mxCell>
        <mxCell id="Rofi-ecD6lDw7zpWpLXX-12" value="thing" style="rounded=0;whiteSpace=wrap;html=1;" parent="1" vertex="1">
          <mxGeometry x="240" y="521.59" width="70" height="24.7" as="geometry" />
        </mxCell>
        <mxCell id="Rofi-ecD6lDw7zpWpLXX-13" style="edgeStyle=orthogonalEdgeStyle;rounded=0;orthogonalLoop=1;jettySize=auto;html=1;entryX=0.5;entryY=0;entryDx=0;entryDy=0;endArrow=classic;endFill=1;" parent="1" source="Rofi-ecD6lDw7zpWpLXX-14" target="Rofi-ecD6lDw7zpWpLXX-16" edge="1">
          <mxGeometry relative="1" as="geometry" />
        </mxCell>
        <mxCell id="Rofi-ecD6lDw7zpWpLXX-14" value="" style="ellipse;fillColor=strokeColor;html=1;" parent="1" vertex="1">
          <mxGeometry x="400" y="516.29" width="30" height="30" as="geometry" />
        </mxCell>
        <mxCell id="Rofi-ecD6lDw7zpWpLXX-15" style="edgeStyle=orthogonalEdgeStyle;rounded=0;orthogonalLoop=1;jettySize=auto;html=1;entryX=0.5;entryY=0;entryDx=0;entryDy=0;endArrow=classic;endFill=1;" parent="1" source="Rofi-ecD6lDw7zpWpLXX-16" target="Rofi-ecD6lDw7zpWpLXX-19" edge="1">
          <mxGeometry relative="1" as="geometry" />
        </mxCell>
        <mxCell id="Rofi-ecD6lDw7zpWpLXX-16" value="newItem = new Item( thing)&amp;nbsp;&lt;br&gt;newItem.above = this" style="html=1;align=center;verticalAlign=top;rounded=1;absoluteArcSize=1;arcSize=10;dashed=0;whiteSpace=wrap;" parent="1" vertex="1">
          <mxGeometry x="324.38" y="573.13" width="181.25" height="33.76" as="geometry" />
        </mxCell>
        <mxCell id="Rofi-ecD6lDw7zpWpLXX-17" style="edgeStyle=orthogonalEdgeStyle;rounded=0;orthogonalLoop=1;jettySize=auto;html=1;entryX=0.577;entryY=0.036;entryDx=0;entryDy=0;entryPerimeter=0;endArrow=classic;endFill=1;" parent="1" source="Rofi-ecD6lDw7zpWpLXX-19" target="Rofi-ecD6lDw7zpWpLXX-21" edge="1">
          <mxGeometry relative="1" as="geometry">
            <Array as="points">
              <mxPoint x="573" y="646.89" />
            </Array>
          </mxGeometry>
        </mxCell>
        <mxCell id="Rofi-ecD6lDw7zpWpLXX-18" style="edgeStyle=orthogonalEdgeStyle;rounded=0;orthogonalLoop=1;jettySize=auto;html=1;entryX=0.144;entryY=0.59;entryDx=0;entryDy=0;entryPerimeter=0;endArrow=classic;endFill=1;" parent="1" source="Rofi-ecD6lDw7zpWpLXX-19" target="Rofi-ecD6lDw7zpWpLXX-23" edge="1">
          <mxGeometry relative="1" as="geometry">
            <Array as="points">
              <mxPoint x="310" y="646.89" />
              <mxPoint x="310" y="756.89" />
              <mxPoint x="415" y="756.89" />
            </Array>
          </mxGeometry>
        </mxCell>
        <mxCell id="Rofi-ecD6lDw7zpWpLXX-19" value="this.below is not null" style="rhombus;" parent="1" vertex="1">
          <mxGeometry x="340" y="631.89" width="149.99" height="30" as="geometry" />
        </mxCell>
        <mxCell id="Rofi-ecD6lDw7zpWpLXX-20" style="edgeStyle=orthogonalEdgeStyle;rounded=0;orthogonalLoop=1;jettySize=auto;html=1;entryX=0.31;entryY=0.353;entryDx=0;entryDy=0;entryPerimeter=0;endArrow=classic;endFill=1;" parent="1" source="Rofi-ecD6lDw7zpWpLXX-21" target="Rofi-ecD6lDw7zpWpLXX-23" edge="1">
          <mxGeometry relative="1" as="geometry">
            <Array as="points">
              <mxPoint x="559" y="756.89" />
              <mxPoint x="434" y="756.89" />
            </Array>
          </mxGeometry>
        </mxCell>
        <mxCell id="Rofi-ecD6lDw7zpWpLXX-21" value="newItem.below = this.below&amp;nbsp;&lt;br&gt;this.below.above = newItem" style="html=1;align=center;verticalAlign=top;rounded=1;absoluteArcSize=1;arcSize=10;dashed=0;whiteSpace=wrap;" parent="1" vertex="1">
          <mxGeometry x="468.75" y="686.89" width="181.25" height="40" as="geometry" />
        </mxCell>
        <mxCell id="Rofi-ecD6lDw7zpWpLXX-22" style="edgeStyle=orthogonalEdgeStyle;rounded=0;orthogonalLoop=1;jettySize=auto;html=1;entryX=0.5;entryY=0;entryDx=0;entryDy=0;endArrow=classic;endFill=1;" parent="1" source="Rofi-ecD6lDw7zpWpLXX-23" target="Rofi-ecD6lDw7zpWpLXX-25" edge="1">
          <mxGeometry relative="1" as="geometry" />
        </mxCell>
        <mxCell id="Rofi-ecD6lDw7zpWpLXX-23" value="" style="html=1;points=[];perimeter=orthogonalPerimeter;fillColor=strokeColor;rotation=90;" parent="1" vertex="1">
          <mxGeometry x="420" y="756.89" width="5" height="80" as="geometry" />
        </mxCell>
        <mxCell id="Rofi-ecD6lDw7zpWpLXX-24" style="edgeStyle=orthogonalEdgeStyle;rounded=0;orthogonalLoop=1;jettySize=auto;html=1;entryX=0.5;entryY=0;entryDx=0;entryDy=0;endArrow=classic;endFill=1;" parent="1" source="Rofi-ecD6lDw7zpWpLXX-25" target="Rofi-ecD6lDw7zpWpLXX-26" edge="1">
          <mxGeometry relative="1" as="geometry" />
        </mxCell>
        <mxCell id="Rofi-ecD6lDw7zpWpLXX-25" value="this.below = newItem" style="html=1;align=center;verticalAlign=top;rounded=1;absoluteArcSize=1;arcSize=10;dashed=0;whiteSpace=wrap;" parent="1" vertex="1">
          <mxGeometry x="331.87" y="826.89" width="181.25" height="33.76" as="geometry" />
        </mxCell>
        <mxCell id="Rofi-ecD6lDw7zpWpLXX-26" value="" style="ellipse;html=1;shape=endState;fillColor=strokeColor;" parent="1" vertex="1">
          <mxGeometry x="407.5" y="896.89" width="30" height="30" as="geometry" />
        </mxCell>
        <mxCell id="Rofi-ecD6lDw7zpWpLXX-27" value="Item.insertAbove" style="shape=umlFrame;whiteSpace=wrap;html=1;width=120;height=20;boundedLbl=1;verticalAlign=middle;align=left;spacingLeft=5;" parent="1" vertex="1">
          <mxGeometry x="280" width="400" height="466.89" as="geometry" />
        </mxCell>
        <mxCell id="Rofi-ecD6lDw7zpWpLXX-28" value="thing" style="rounded=0;whiteSpace=wrap;html=1;" parent="1" vertex="1">
          <mxGeometry x="240" y="41.59000000000003" width="70" height="24.7" as="geometry" />
        </mxCell>
        <mxCell id="Rofi-ecD6lDw7zpWpLXX-29" style="edgeStyle=orthogonalEdgeStyle;rounded=0;orthogonalLoop=1;jettySize=auto;html=1;entryX=0.5;entryY=0;entryDx=0;entryDy=0;endArrow=classic;endFill=1;" parent="1" source="Rofi-ecD6lDw7zpWpLXX-30" target="Rofi-ecD6lDw7zpWpLXX-32" edge="1">
          <mxGeometry relative="1" as="geometry" />
        </mxCell>
        <mxCell id="Rofi-ecD6lDw7zpWpLXX-30" value="" style="ellipse;fillColor=strokeColor;html=1;" parent="1" vertex="1">
          <mxGeometry x="400" y="36.28999999999991" width="30" height="30" as="geometry" />
        </mxCell>
        <mxCell id="Rofi-ecD6lDw7zpWpLXX-31" style="edgeStyle=orthogonalEdgeStyle;rounded=0;orthogonalLoop=1;jettySize=auto;html=1;entryX=0.5;entryY=0;entryDx=0;entryDy=0;endArrow=classic;endFill=1;" parent="1" source="Rofi-ecD6lDw7zpWpLXX-32" target="Rofi-ecD6lDw7zpWpLXX-35" edge="1">
          <mxGeometry relative="1" as="geometry" />
        </mxCell>
        <mxCell id="Rofi-ecD6lDw7zpWpLXX-32" value="newItem = new Item( thing)&amp;nbsp;&lt;br&gt;newItem.below = this" style="html=1;align=center;verticalAlign=top;rounded=1;absoluteArcSize=1;arcSize=10;dashed=0;whiteSpace=wrap;" parent="1" vertex="1">
          <mxGeometry x="324.3800000000001" y="93.13" width="181.25" height="33.76" as="geometry" />
        </mxCell>
        <mxCell id="Rofi-ecD6lDw7zpWpLXX-33" style="edgeStyle=orthogonalEdgeStyle;rounded=0;orthogonalLoop=1;jettySize=auto;html=1;entryX=0.577;entryY=0.036;entryDx=0;entryDy=0;entryPerimeter=0;endArrow=classic;endFill=1;" parent="1" source="Rofi-ecD6lDw7zpWpLXX-35" target="Rofi-ecD6lDw7zpWpLXX-37" edge="1">
          <mxGeometry relative="1" as="geometry">
            <Array as="points">
              <mxPoint x="573" y="166.89" />
            </Array>
          </mxGeometry>
        </mxCell>
        <mxCell id="Rofi-ecD6lDw7zpWpLXX-34" style="edgeStyle=orthogonalEdgeStyle;rounded=0;orthogonalLoop=1;jettySize=auto;html=1;entryX=0.144;entryY=0.59;entryDx=0;entryDy=0;entryPerimeter=0;endArrow=classic;endFill=1;" parent="1" source="Rofi-ecD6lDw7zpWpLXX-35" target="Rofi-ecD6lDw7zpWpLXX-39" edge="1">
          <mxGeometry relative="1" as="geometry">
            <Array as="points">
              <mxPoint x="310" y="166.89" />
              <mxPoint x="310" y="276.89" />
              <mxPoint x="415" y="276.89" />
            </Array>
          </mxGeometry>
        </mxCell>
        <mxCell id="Rofi-ecD6lDw7zpWpLXX-35" value="this.above is not null" style="rhombus;" parent="1" vertex="1">
          <mxGeometry x="340" y="151.89" width="149.99" height="30" as="geometry" />
        </mxCell>
        <mxCell id="Rofi-ecD6lDw7zpWpLXX-36" style="edgeStyle=orthogonalEdgeStyle;rounded=0;orthogonalLoop=1;jettySize=auto;html=1;entryX=0.31;entryY=0.353;entryDx=0;entryDy=0;entryPerimeter=0;endArrow=classic;endFill=1;" parent="1" source="Rofi-ecD6lDw7zpWpLXX-37" target="Rofi-ecD6lDw7zpWpLXX-39" edge="1">
          <mxGeometry relative="1" as="geometry">
            <Array as="points">
              <mxPoint x="559" y="276.89" />
              <mxPoint x="434" y="276.89" />
            </Array>
          </mxGeometry>
        </mxCell>
        <mxCell id="Rofi-ecD6lDw7zpWpLXX-37" value="newItem.above = this.above&amp;nbsp;&lt;br&gt;this.above.below = newItem" style="html=1;align=center;verticalAlign=top;rounded=1;absoluteArcSize=1;arcSize=10;dashed=0;whiteSpace=wrap;" parent="1" vertex="1">
          <mxGeometry x="468.75" y="206.89" width="181.25" height="40" as="geometry" />
        </mxCell>
        <mxCell id="Rofi-ecD6lDw7zpWpLXX-38" style="edgeStyle=orthogonalEdgeStyle;rounded=0;orthogonalLoop=1;jettySize=auto;html=1;entryX=0.5;entryY=0;entryDx=0;entryDy=0;endArrow=classic;endFill=1;" parent="1" source="Rofi-ecD6lDw7zpWpLXX-39" target="Rofi-ecD6lDw7zpWpLXX-41" edge="1">
          <mxGeometry relative="1" as="geometry" />
        </mxCell>
        <mxCell id="Rofi-ecD6lDw7zpWpLXX-39" value="" style="html=1;points=[];perimeter=orthogonalPerimeter;fillColor=strokeColor;rotation=90;" parent="1" vertex="1">
          <mxGeometry x="420" y="276.89" width="5" height="80" as="geometry" />
        </mxCell>
        <mxCell id="Rofi-ecD6lDw7zpWpLXX-40" style="edgeStyle=orthogonalEdgeStyle;rounded=0;orthogonalLoop=1;jettySize=auto;html=1;entryX=0.5;entryY=0;entryDx=0;entryDy=0;endArrow=classic;endFill=1;" parent="1" source="Rofi-ecD6lDw7zpWpLXX-41" target="Rofi-ecD6lDw7zpWpLXX-42" edge="1">
          <mxGeometry relative="1" as="geometry" />
        </mxCell>
        <mxCell id="Rofi-ecD6lDw7zpWpLXX-41" value="this.below = newItem" style="html=1;align=center;verticalAlign=top;rounded=1;absoluteArcSize=1;arcSize=10;dashed=0;whiteSpace=wrap;" parent="1" vertex="1">
          <mxGeometry x="331.8699999999999" y="346.89" width="181.25" height="33.76" as="geometry" />
        </mxCell>
        <mxCell id="Rofi-ecD6lDw7zpWpLXX-42" value="" style="ellipse;html=1;shape=endState;fillColor=strokeColor;" parent="1" vertex="1">
          <mxGeometry x="407.5" y="416.89" width="30" height="30" as="geometry" />
        </mxCell>
      </root>
    </mxGraphModel>
  </diagram>
  <diagram id="VF95hWk5v_U0vzs23ScI" name="First Iteration">
    <mxGraphModel dx="446" dy="1004" grid="0" gridSize="10" guides="1" tooltips="1" connect="1" arrows="1" fold="1" page="0" pageScale="1" pageWidth="850" pageHeight="1100" math="0" shadow="0">
      <root>
        <mxCell id="0" />
        <mxCell id="1" parent="0" />
        <mxCell id="e__lyhotOgGY5VtyILRd-1" value="True" style="edgeStyle=orthogonalEdgeStyle;rounded=0;orthogonalLoop=1;jettySize=auto;html=1;entryX=0.5;entryY=0;entryDx=0;entryDy=0;" edge="1" parent="1" source="e__lyhotOgGY5VtyILRd-3" target="e__lyhotOgGY5VtyILRd-11">
          <mxGeometry x="-0.8763" relative="1" as="geometry">
            <Array as="points">
              <mxPoint x="1188" y="179" />
              <mxPoint x="1188" y="35" />
              <mxPoint x="1031" y="35" />
            </Array>
            <mxPoint as="offset" />
          </mxGeometry>
        </mxCell>
        <mxCell id="e__lyhotOgGY5VtyILRd-2" style="edgeStyle=orthogonalEdgeStyle;rounded=0;orthogonalLoop=1;jettySize=auto;html=1;entryX=0.5;entryY=0;entryDx=0;entryDy=0;" edge="1" parent="1" source="e__lyhotOgGY5VtyILRd-3" target="e__lyhotOgGY5VtyILRd-14">
          <mxGeometry relative="1" as="geometry">
            <Array as="points">
              <mxPoint x="942" y="179" />
              <mxPoint x="942" y="231" />
              <mxPoint x="1030" y="231" />
            </Array>
          </mxGeometry>
        </mxCell>
        <mxCell id="e__lyhotOgGY5VtyILRd-3" value="&#xa; not enough credits?" style="rhombus;verticalAlign=top;" vertex="1" parent="1">
          <mxGeometry x="968" y="171" width="125" height="15" as="geometry" />
        </mxCell>
        <mxCell id="e__lyhotOgGY5VtyILRd-4" style="edgeStyle=orthogonalEdgeStyle;rounded=0;orthogonalLoop=1;jettySize=auto;html=1;entryX=0.5;entryY=0;entryDx=0;entryDy=0;" edge="1" parent="1" source="e__lyhotOgGY5VtyILRd-5" target="e__lyhotOgGY5VtyILRd-7">
          <mxGeometry relative="1" as="geometry" />
        </mxCell>
        <mxCell id="e__lyhotOgGY5VtyILRd-5" value="new College" style="html=1;align=center;verticalAlign=middle;rounded=1;absoluteArcSize=1;arcSize=10;dashed=0;whiteSpace=wrap;" vertex="1" parent="1">
          <mxGeometry x="966" y="-129" width="129" height="28" as="geometry" />
        </mxCell>
        <mxCell id="e__lyhotOgGY5VtyILRd-6" style="edgeStyle=orthogonalEdgeStyle;rounded=0;orthogonalLoop=1;jettySize=auto;html=1;entryX=0.5;entryY=0;entryDx=0;entryDy=0;" edge="1" parent="1" source="e__lyhotOgGY5VtyILRd-7" target="e__lyhotOgGY5VtyILRd-9">
          <mxGeometry relative="1" as="geometry" />
        </mxCell>
        <mxCell id="e__lyhotOgGY5VtyILRd-7" value="new Student" style="html=1;align=center;verticalAlign=middle;rounded=1;absoluteArcSize=1;arcSize=10;dashed=0;whiteSpace=wrap;" vertex="1" parent="1">
          <mxGeometry x="966" y="-73" width="129" height="28" as="geometry" />
        </mxCell>
        <mxCell id="e__lyhotOgGY5VtyILRd-8" style="edgeStyle=orthogonalEdgeStyle;rounded=0;orthogonalLoop=1;jettySize=auto;html=1;entryX=0.5;entryY=0;entryDx=0;entryDy=0;" edge="1" parent="1" source="e__lyhotOgGY5VtyILRd-9" target="e__lyhotOgGY5VtyILRd-11">
          <mxGeometry relative="1" as="geometry" />
        </mxCell>
        <mxCell id="e__lyhotOgGY5VtyILRd-9" value="student assigned college" style="html=1;align=center;verticalAlign=middle;rounded=1;absoluteArcSize=1;arcSize=10;dashed=0;whiteSpace=wrap;" vertex="1" parent="1">
          <mxGeometry x="926" y="-13" width="209" height="28" as="geometry" />
        </mxCell>
        <mxCell id="e__lyhotOgGY5VtyILRd-10" style="edgeStyle=orthogonalEdgeStyle;rounded=0;orthogonalLoop=1;jettySize=auto;html=1;entryX=0.5;entryY=0;entryDx=0;entryDy=0;" edge="1" parent="1" source="e__lyhotOgGY5VtyILRd-11" target="e__lyhotOgGY5VtyILRd-17">
          <mxGeometry relative="1" as="geometry" />
        </mxCell>
        <mxCell id="e__lyhotOgGY5VtyILRd-11" value="student receives credits and grade for course" style="html=1;align=center;verticalAlign=middle;rounded=1;absoluteArcSize=1;arcSize=10;dashed=0;whiteSpace=wrap;" vertex="1" parent="1">
          <mxGeometry x="905.5" y="55" width="250" height="30" as="geometry" />
        </mxCell>
        <mxCell id="e__lyhotOgGY5VtyILRd-12" style="edgeStyle=orthogonalEdgeStyle;rounded=0;orthogonalLoop=1;jettySize=auto;html=1;entryX=0.5;entryY=0;entryDx=0;entryDy=0;" edge="1" parent="1" source="e__lyhotOgGY5VtyILRd-13" target="e__lyhotOgGY5VtyILRd-5">
          <mxGeometry relative="1" as="geometry" />
        </mxCell>
        <mxCell id="e__lyhotOgGY5VtyILRd-13" value="" style="ellipse;fillColor=strokeColor;html=1;" vertex="1" parent="1">
          <mxGeometry x="1020.5" y="-180" width="20" height="20" as="geometry" />
        </mxCell>
        <mxCell id="e__lyhotOgGY5VtyILRd-14" value="" style="ellipse;html=1;shape=endState;fillColor=strokeColor;" vertex="1" parent="1">
          <mxGeometry x="1020.5" y="257" width="20" height="20" as="geometry" />
        </mxCell>
        <mxCell id="e__lyhotOgGY5VtyILRd-15" value="Will deal with courses, etc later. For now credits and grades reasonable random values (RRV)" style="shape=note2;boundedLbl=1;whiteSpace=wrap;html=1;size=6;verticalAlign=top;align=left;spacingTop=-8;" vertex="1" parent="1">
          <mxGeometry x="1219" y="36" width="188" height="51" as="geometry" />
        </mxCell>
        <mxCell id="e__lyhotOgGY5VtyILRd-16" style="edgeStyle=orthogonalEdgeStyle;rounded=0;orthogonalLoop=1;jettySize=auto;html=1;entryX=0.5;entryY=0;entryDx=0;entryDy=0;" edge="1" parent="1" source="e__lyhotOgGY5VtyILRd-17" target="e__lyhotOgGY5VtyILRd-3">
          <mxGeometry relative="1" as="geometry" />
        </mxCell>
        <mxCell id="e__lyhotOgGY5VtyILRd-17" value="calculate GPA" style="html=1;align=center;verticalAlign=middle;rounded=1;absoluteArcSize=1;arcSize=10;dashed=0;whiteSpace=wrap;" vertex="1" parent="1">
          <mxGeometry x="966" y="113" width="129" height="28" as="geometry" />
        </mxCell>
        <mxCell id="e__lyhotOgGY5VtyILRd-18" value="will deal later with multiple Colleges and selection" style="shape=note2;boundedLbl=1;whiteSpace=wrap;size=6;verticalAlign=top;align=left;html=1;spacingTop=-8;" vertex="1" parent="1">
          <mxGeometry x="1207" y="-31" width="152" height="42" as="geometry" />
        </mxCell>
        <mxCell id="e__lyhotOgGY5VtyILRd-19" value="Credits, grades not stored beyond single runtime. Display if you must :)" style="shape=note2;boundedLbl=1;whiteSpace=wrap;html=1;size=6;verticalAlign=top;align=left;spacingTop=-8;" vertex="1" parent="1">
          <mxGeometry x="1221" y="111" width="199" height="41" as="geometry" />
        </mxCell>
        <mxCell id="e__lyhotOgGY5VtyILRd-20" value="Enough based on program (major) and other factors. For now RRV" style="shape=note2;boundedLbl=1;whiteSpace=wrap;html=1;size=6;verticalAlign=top;align=left;spacingTop=-8;" vertex="1" parent="1">
          <mxGeometry x="1219" y="202" width="188" height="37" as="geometry" />
        </mxCell>
        <mxCell id="e__lyhotOgGY5VtyILRd-21" value="Student" style="swimlane;fontStyle=1;align=center;verticalAlign=top;childLayout=stackLayout;horizontal=1;startSize=26;horizontalStack=0;resizeParent=1;resizeParentMax=0;resizeLast=0;collapsible=1;marginBottom=0;whiteSpace=wrap;html=1;" vertex="1" parent="1">
          <mxGeometry x="1495" y="-34" width="160" height="103" as="geometry" />
        </mxCell>
        <mxCell id="e__lyhotOgGY5VtyILRd-22" value="college : College" style="text;strokeColor=none;fillColor=none;align=left;verticalAlign=top;spacingLeft=4;spacingRight=4;overflow=hidden;rotatable=0;points=[[0,0.5],[1,0.5]];portConstraint=eastwest;whiteSpace=wrap;html=1;" vertex="1" parent="e__lyhotOgGY5VtyILRd-21">
          <mxGeometry y="26" width="160" height="26" as="geometry" />
        </mxCell>
        <mxCell id="e__lyhotOgGY5VtyILRd-23" value="" style="line;strokeWidth=1;fillColor=none;align=left;verticalAlign=middle;spacingTop=-1;spacingLeft=3;spacingRight=3;rotatable=0;labelPosition=right;points=[];portConstraint=eastwest;strokeColor=inherit;" vertex="1" parent="e__lyhotOgGY5VtyILRd-21">
          <mxGeometry y="52" width="160" height="8" as="geometry" />
        </mxCell>
        <mxCell id="e__lyhotOgGY5VtyILRd-24" value="takeCourse( ) : void&lt;br&gt;getGPA( ) : Number" style="text;strokeColor=none;fillColor=none;align=left;verticalAlign=top;spacingLeft=4;spacingRight=4;overflow=hidden;rotatable=0;points=[[0,0.5],[1,0.5]];portConstraint=eastwest;whiteSpace=wrap;html=1;" vertex="1" parent="e__lyhotOgGY5VtyILRd-21">
          <mxGeometry y="60" width="160" height="43" as="geometry" />
        </mxCell>
        <mxCell id="e__lyhotOgGY5VtyILRd-25" value="College" style="swimlane;fontStyle=1;align=center;verticalAlign=top;childLayout=stackLayout;horizontal=1;startSize=26;horizontalStack=0;resizeParent=1;resizeParentMax=0;resizeLast=0;collapsible=1;marginBottom=0;whiteSpace=wrap;html=1;" vertex="1" parent="1">
          <mxGeometry x="1495" y="-166" width="160" height="104" as="geometry" />
        </mxCell>
        <mxCell id="e__lyhotOgGY5VtyILRd-26" value="studentProgress : Item" style="text;strokeColor=none;fillColor=none;align=left;verticalAlign=top;spacingLeft=4;spacingRight=4;overflow=hidden;rotatable=0;points=[[0,0.5],[1,0.5]];portConstraint=eastwest;whiteSpace=wrap;html=1;" vertex="1" parent="e__lyhotOgGY5VtyILRd-25">
          <mxGeometry y="26" width="160" height="26" as="geometry" />
        </mxCell>
        <mxCell id="e__lyhotOgGY5VtyILRd-27" value="" style="line;strokeWidth=1;fillColor=none;align=left;verticalAlign=middle;spacingTop=-1;spacingLeft=3;spacingRight=3;rotatable=0;labelPosition=right;points=[];portConstraint=eastwest;strokeColor=inherit;" vertex="1" parent="e__lyhotOgGY5VtyILRd-25">
          <mxGeometry y="52" width="160" height="8" as="geometry" />
        </mxCell>
        <mxCell id="e__lyhotOgGY5VtyILRd-28" value="awardAcheivement( ) : void&lt;br&gt;calculateGPA( ) : number" style="text;strokeColor=none;fillColor=none;align=left;verticalAlign=top;spacingLeft=4;spacingRight=4;overflow=hidden;rotatable=0;points=[[0,0.5],[1,0.5]];portConstraint=eastwest;whiteSpace=wrap;html=1;" vertex="1" parent="e__lyhotOgGY5VtyILRd-25">
          <mxGeometry y="60" width="160" height="44" as="geometry" />
        </mxCell>
        <mxCell id="e__lyhotOgGY5VtyILRd-29" value="will deal later with multiple students later" style="shape=note2;boundedLbl=1;whiteSpace=wrap;size=6;verticalAlign=top;align=left;html=1;spacingTop=-8;" vertex="1" parent="1">
          <mxGeometry x="1147" y="-104" width="152" height="42" as="geometry" />
        </mxCell>
        <mxCell id="e__lyhotOgGY5VtyILRd-30" value="Acheivement" style="swimlane;fontStyle=1;align=center;verticalAlign=top;childLayout=stackLayout;horizontal=1;startSize=26;horizontalStack=0;resizeParent=1;resizeParentMax=0;resizeLast=0;collapsible=1;marginBottom=0;whiteSpace=wrap;html=1;" vertex="1" parent="1">
          <mxGeometry x="1499" y="101" width="160" height="101" as="geometry" />
        </mxCell>
        <mxCell id="e__lyhotOgGY5VtyILRd-31" value="credit : Number&lt;br&gt;grade : Number" style="text;strokeColor=none;fillColor=none;align=left;verticalAlign=top;spacingLeft=4;spacingRight=4;overflow=hidden;rotatable=0;points=[[0,0.5],[1,0.5]];portConstraint=eastwest;whiteSpace=wrap;html=1;" vertex="1" parent="e__lyhotOgGY5VtyILRd-30">
          <mxGeometry y="26" width="160" height="41" as="geometry" />
        </mxCell>
        <mxCell id="e__lyhotOgGY5VtyILRd-32" value="" style="line;strokeWidth=1;fillColor=none;align=left;verticalAlign=middle;spacingTop=-1;spacingLeft=3;spacingRight=3;rotatable=0;labelPosition=right;points=[];portConstraint=eastwest;strokeColor=inherit;" vertex="1" parent="e__lyhotOgGY5VtyILRd-30">
          <mxGeometry y="67" width="160" height="8" as="geometry" />
        </mxCell>
        <mxCell id="e__lyhotOgGY5VtyILRd-33" value="&lt;br&gt;&lt;br&gt;" style="text;strokeColor=none;fillColor=none;align=left;verticalAlign=top;spacingLeft=4;spacingRight=4;overflow=hidden;rotatable=0;points=[[0,0.5],[1,0.5]];portConstraint=eastwest;whiteSpace=wrap;html=1;" vertex="1" parent="e__lyhotOgGY5VtyILRd-30">
          <mxGeometry y="75" width="160" height="26" as="geometry" />
        </mxCell>
        <mxCell id="e__lyhotOgGY5VtyILRd-34" value="Grade values 0-4.&lt;br&gt;Will deal later with letters and percentages" style="shape=note2;boundedLbl=1;whiteSpace=wrap;size=6;verticalAlign=top;align=left;html=1;spacingTop=-8;" vertex="1" parent="1">
          <mxGeometry x="1674" y="121" width="152" height="56" as="geometry" />
        </mxCell>
        <mxCell id="e__lyhotOgGY5VtyILRd-35" value="Student progress is list of Acheivements." style="shape=note2;boundedLbl=1;whiteSpace=wrap;size=6;verticalAlign=top;align=left;html=1;spacingTop=-8;" vertex="1" parent="1">
          <mxGeometry x="1672" y="-156" width="152" height="43" as="geometry" />
        </mxCell>
        <mxCell id="e__lyhotOgGY5VtyILRd-36" value="College could be nice and return an Acheivement each time a course is taken." style="shape=note2;boundedLbl=1;whiteSpace=wrap;size=6;verticalAlign=top;align=left;html=1;spacingTop=-8;" vertex="1" parent="1">
          <mxGeometry x="1674" y="-20" width="161" height="56" as="geometry" />
        </mxCell>
        <mxCell id="e__lyhotOgGY5VtyILRd-37" value="Assuming every course taken is awarded an Acheivement" style="shape=note2;boundedLbl=1;whiteSpace=wrap;size=6;verticalAlign=top;align=left;html=1;spacingTop=-8;" vertex="1" parent="1">
          <mxGeometry x="1674" y="45" width="161" height="39" as="geometry" />
        </mxCell>
        <mxCell id="e__lyhotOgGY5VtyILRd-38" value="Acheivement based on many factors. For now RRVs added to student&#39;s progress." style="shape=note2;boundedLbl=1;whiteSpace=wrap;html=1;size=6;verticalAlign=top;align=left;spacingTop=-8;" vertex="1" parent="1">
          <mxGeometry x="1672" y="-97" width="188" height="51" as="geometry" />
        </mxCell>
      </root>
    </mxGraphModel>
  </diagram>
</mxfile>
